# xmcd
#
# Track frame offsets:
#	150
#	17509
#	35052
#	49757
#	67547
#	85290
#	102761
#	117007
#	132765
#	145538
#	162027
#	192028
#	218547
#	240462
#
# Disc length: 3391 seconds
#
# Revision: 1
# Processed by: cddbd v1.5.2PL0 Copyright (c) Steve Scherf et al.
# Submitted via: audiograbber 1.83.01
#
DISCID=a30d3d0e
DTITLE=JonesTM - HC200726
DYEAR=2007
DGENRE=Country
TTITLE0=Kim McAbee - American Boys
TTITLE1=Brad Paisley - Online [Single Edit]
TTITLE2=Emerson Drive - You Still Own Me
TTITLE3=Tracy Lawrence - Til I Was A Daddy Too
TTITLE4=Annie Sims - Everything I Know About Leavin' [Radio Edit]
TTITLE5=J. Holiday - Bed [Radio Edit]
TTITLE6=Macy Gray - What I Gotta Do [Album Version]
TTITLE7=Tyrese - Come Back To Me Shawty [Radio Edit]
TTITLE8=Keite Young Feat. N'dambi - If We Were Alone
TTITLE9=Deemi - On The Radio [Album Version]
TTITLE10=Brian Auger's Oblivion Express - Ghostown [Album Version]
TTITLE11=Acoustic Alchemy - Only In My Dreams [Album Version]
TTITLE12=Mike Catalano - Smooth As Silk [Album Version]
TTITLE13=Norah Jones - Not Too Late
EXTD=
EXTT0=
EXTT1=
EXTT2=
EXTT3=
EXTT4=
EXTT5=
EXTT6=
EXTT7=
EXTT8=
EXTT9=
EXTT10=
EXTT11=
EXTT12=
EXTT13=
PLAYORDER=
